<svg width="80" height="80" viewBox="0 0 80 80" fill="none" xmlns="http://www.w3.org/2000/svg">
<path xmlns="http://www.w3.org/2000/svg" d="M0 39.6C0 20.9324 0 11.5986 5.79929 5.79929C11.5986 0 20.9324 0 39.6 0C58.2676 0 67.6014 0 73.4007 5.79929C79.2 11.5986 79.2 20.9324 79.2 39.6C79.2 58.2676 79.2 67.6014 73.4007 73.4007C67.6014 79.2 58.2676 79.2 39.6 79.2C20.9324 79.2 11.5986 79.2 5.79929 73.4007C0 67.6014 0 58.2676 0 39.6Z" fill="#3258E2"/>
<path xmlns="http://www.w3.org/2000/svg" d="M59.1147 31.9913C59.1147 36.2736 59.0788 40.556 59.1327 44.8383C59.1507 46.2541 58.7731 47.5126 58.0719 48.7012C57.083 50.4316 55.8603 51.9872 54.3858 53.3156C51.9765 55.5005 49.5131 57.6504 47.0138 59.7304C44.9101 61.4783 42.6984 63.1213 40.5228 64.8168C40.2171 65.044 39.8755 65.2188 39.5518 65.446C39.2282 65.6733 38.9405 65.6383 38.6349 65.4111C37.8797 64.8518 37.0705 64.3449 36.3333 63.7681C32.6832 60.884 29.0152 58.0175 25.4011 55.0635C23.3693 53.403 21.5892 51.4629 20.2047 49.243C19.4136 47.9496 19 46.5862 19 45.0656C19.036 36.1163 19.018 27.1671 19 18.2178C19 17.8333 19.1079 17.641 19.4855 17.5187C22.5242 16.4699 25.6349 15.6134 28.8174 15.0541C30.8132 14.7045 32.8271 14.4074 34.8409 14.1976C37.4661 13.9529 40.1092 13.9355 42.7524 14.1452C48.2005 14.5822 53.4868 15.7358 58.6293 17.5012C58.9889 17.6235 59.0788 17.7983 59.0788 18.1479C59.0788 22.7623 59.0788 27.3943 59.0788 32.0087L59.1147 31.9913ZM38.9765 29.9288C38.8506 29.8239 38.7607 29.754 38.6708 29.684C35.686 26.9748 32.6653 24.2655 29.6985 21.5214C29.1051 20.962 28.5297 20.6998 27.6846 20.7348C26.0484 20.8047 24.4122 20.7698 22.7759 20.7348C22.3983 20.7348 22.2545 20.8572 22.2905 21.2067C22.2905 21.3291 22.2905 21.434 22.2905 21.5563C22.2905 27.8662 22.2905 34.1587 22.2905 40.4686C22.2905 41.8144 22.3804 43.1778 22.5242 44.5237C22.704 46.2716 23.1895 47.9496 24.2503 49.4353C25.5629 51.2531 27.1272 52.8437 28.7635 54.3818C28.8174 54.4343 28.8893 54.4518 29.0332 54.5392V30.7153C29.195 30.8377 29.2849 30.9075 29.3748 30.9775C31.3707 32.7254 33.3665 34.4733 35.3624 36.2212C35.5781 36.396 35.65 36.6057 35.65 36.8679C35.65 39.9267 35.65 42.9681 35.65 46.0269C35.65 46.4289 35.7759 46.5513 36.1715 46.5338C37.8976 46.5163 39.6058 46.5163 41.3319 46.4988C41.6916 46.4988 41.8714 46.3182 41.8714 45.957C41.8714 42.8632 41.8714 39.7694 41.8714 36.6756C41.8714 36.4834 41.9613 36.2212 42.1051 36.1163C44.2448 34.4034 46.3845 32.7254 48.5422 31.0299C48.6141 30.9775 48.7039 30.9251 48.8658 30.8377V54.5217C48.9737 54.4343 49.0456 54.4168 49.0815 54.3644C50.2143 53.1234 51.3651 51.9173 52.4619 50.6414C53.307 49.6625 54.0622 48.6138 54.4937 47.3728C55.1051 45.6598 55.3388 43.8945 55.3388 42.0941C55.3748 35.1549 55.3388 28.2158 55.3748 21.2592C55.3748 20.9446 55.2849 20.8396 54.9432 20.8396C53.0193 20.8396 51.0954 20.8396 49.1895 20.8396C48.8298 20.8396 48.5781 20.9446 48.3444 21.1718C46.2946 23.0945 44.2448 24.9996 42.195 26.9223C41.1341 27.9187 40.0733 28.915 38.9585 29.9288H38.9765Z" fill="white"/>
</svg>
