<svg xmlns="http://www.w3.org/2000/svg" xmlns:xlink="http://www.w3.org/1999/xlink" version="1.1" id="Layer_1" x="0px" y="0px" viewBox="0 0 512 512" style="enable-background:new 0 0 512 512;" xml:space="preserve">
<style type="text/css">
	.st0{fill-rule:evenodd;clip-rule:evenodd;fill:#8D6748;}
	.st1{fill:#FFFFFF;}
</style>
<path class="st0" d="M453,384.4L268.8,490.9c-7.9,4.6-17.7,4.6-25.6,0L59,384.4c-7.9-4.6-12.8-13.1-12.8-22V149.6  c0-9.2,4.9-17.4,12.8-22L243.2,21.1c7.9-4.6,17.7-4.6,25.6,0L453,127.8c7.9,4.6,12.8,13.1,12.8,22v212.8c-0.3,9-5.1,17.4-12.8,22  V384.4z"/>
<g>
	<path class="st1" d="M255.7,57.8c2.5,0,5,0.8,7.2,2L422,151.7c4.4,2.6,7.1,7.4,7.2,12.5V348c0,5.1-2.7,9.9-7.2,12.5l-159.1,91.8   c-2.3,1.3-4.5,2-7.2,2c-2.5,0-5-0.7-7.2-2L89.5,360.5c-4.4-2.6-7.1-7.4-7.2-12.5V164.3c0-5.1,2.7-9.9,7.2-12.5l159.1-91.8   C250.9,58.6,253.5,57.8,255.7,57.8 M255.7,50.2c-3.8,0-7.7,1.1-11,3.1L85.6,145.1c-6.8,3.9-11,11.1-11,18.9v183.7   c0,7.9,4.1,15.1,11,18.9l159.1,91.9c3.3,2,7.2,3.1,11,3.1c3.8,0,7.7-1.1,11-3.1l159.1-91.8c6.8-3.9,11-11.1,11-18.9V164   c0-7.9-4.1-15.1-11-18.9L266.7,53.2C263.4,51.2,259.6,50.2,255.7,50.2L255.7,50.2z M278.5,164c0-1.3-1.1-2.6-2.6-2.6h-48.1   c-1.3,0-2.6,1.1-2.6,2.6c0,8.7,1.3,38.6,14.1,53.2c0.5,0.5,1.1,0.8,1.8,0.8h21.4c0.7,0,1.3-0.3,1.8-0.8   C277.1,202.9,278.4,173,278.5,164L278.5,164z M259.6,210.6h-15.1c-0.7,0-1.3-0.3-1.8-0.8c-8.7-10.1-9.7-30.7-10-37.9   c0-1.3,1.1-2.6,2.6-2.6H269c1.3,0,2.6,1.1,2.6,2.6c0,7.2-1.3,27.4-10,37.9C260.8,210.3,260.3,210.6,259.6,210.6z M256.7,156.3   c0,0,9.2-5.4,3.6-15.1c-3.3-5.1-4.9-9.5-3.6-11.3c-3.3,4.1-9,8.4-2.8,17.6C256,149.9,257,154.8,256.7,156.3L256.7,156.3z    M246.6,157.1c0,0,6.1-3.6,2.3-10.1c-2.3-3.3-3.3-6.4-2.3-7.4c-2.3,2.8-5.9,5.6-1.8,12C246.1,152.8,246.6,156.1,246.6,157.1   L246.6,157.1z"/>
	<path class="st1" d="M267.4,186.8c-1.1,6.9-3.1,14.8-7.4,20c-0.5,0.5-1.1,0.8-1.5,0.8h-12.8c-0.5,0-1.3-0.3-1.5-0.8   c-3.1-3.8-5.1-9-6.4-14.3c0,0,14.8,2,23.3-1.1C267.1,189,267.4,186.8,267.4,186.8L267.4,186.8z M99.3,228.2h9.5l15.6,24.1   l15.6-24.1h9.5v51.2h-9v-36.6l-16.1,24.1h-0.3l-15.8-23.8v36.6h-9L99.3,228.2z M195.8,280.2c-3.7,0-7.3-0.7-10.7-2   c-3.2-1.3-6.1-3.2-8.4-5.6c-2.4-2.4-4.2-5.3-5.4-8.4c-1.3-3.1-2-6.8-2-10.1v-0.3c0-3.6,0.8-6.9,2-10.1c1.3-3.1,3.1-5.9,5.6-8.4   c2.4-2.4,5.3-4.4,8.4-5.6c3.3-1.5,6.9-2,10.7-2c3.7,0,7.3,0.7,10.7,2c3.2,1.3,6.1,3.2,8.4,5.6c2.4,2.4,4.2,5.3,5.4,8.4   c1.3,3.1,2,6.8,2,10.1v0.3c0,3.6-0.8,6.9-2,10.1c-1.3,3.1-3.1,5.9-5.6,8.4c-2.4,2.4-5.3,4.4-8.4,5.6   C203.2,279.6,199.6,280.2,195.8,280.2z M195.8,272c2.6,0,4.9-0.5,6.9-1.5c2-1,3.8-2.3,5.4-3.8c1.5-1.5,2.6-3.6,3.6-5.6   c0.8-2.2,1.2-4.6,1.3-6.9v-0.3c0-2.6-0.5-4.9-1.3-7.2c-0.8-2.2-2-4.2-3.6-5.9c-1.6-1.6-3.4-2.9-5.4-3.8c-2-1.1-4.3-1.5-6.9-1.5   c-2.4,0-4.8,0.5-6.9,1.5c-2,1-3.8,2.3-5.4,3.8c-1.5,1.5-2.6,3.6-3.6,5.6c-0.8,2.2-1.2,4.6-1.3,6.9v0.3c0,2.6,0.5,4.9,1.3,7.2   c0.8,2.2,2,4.2,3.6,5.9c1.6,1.6,3.4,2.9,5.4,3.8C191,271.5,193.4,272,195.8,272z M265.9,280.2c-3.5,0-7-0.7-10.2-2   c-3.1-1.3-5.9-3.3-8.2-5.6c-2.4-2.4-4.2-5.3-5.4-8.4c-1.3-3.3-2-6.8-2-10.1v-0.3c0-3.6,0.8-7.2,2-10.1c1.3-3.1,3.1-6,5.4-8.4   c2.4-2.4,5.3-4.4,8.4-5.6c3.4-1.4,7.1-2.1,10.7-2c2.3,0,4.3,0.3,6.4,0.5l5.4,1.5c1.5,0.8,3.1,1.5,4.3,2.6l3.8,3.3l-5.9,6.8   c-1.9-1.8-4.1-3.3-6.4-4.5c-2.5-1.2-5.2-1.9-7.9-1.8c-2.3,0-4.6,0.5-6.7,1.5c-2,1-3.8,2.3-5.4,3.8c-1.5,1.5-2.6,3.6-3.6,5.6   c-0.8,2.2-1.2,4.6-1.3,6.9v0.3c0,2.6,0.5,4.9,1.3,7.2c0.8,2.2,2,4.2,3.6,5.9c1.5,1.5,3.3,3.1,5.4,3.8c2,0.8,4.3,1.5,6.8,1.5   c3.1,0,5.9-0.5,7.9-1.8c2.4-1.4,4.6-3.1,6.7-4.9l5.9,5.9c-1.3,1.5-2.6,2.6-4.1,3.8c-1.5,1.3-3.1,2-4.5,2.8   c-1.7,0.9-3.5,1.5-5.4,1.8c-2.3,0.5-4.5,0.5-6.9,0.5L265.9,280.2z M304.7,228.2h9v21.2h24.6v-21.2h9v51.2h-9V258h-24.5v21.4h-9   L304.7,228.2z M386.9,228h8.2l22.5,51.4h-9.5L403,267h-24.1l-5.4,12.4h-9.2L386.9,228z M399.6,259.2l-8.7-20.5l-8.7,20.5   C382.2,259.2,399.6,259.2,399.6,259.2z M92.8,295.5h326.4v2.8H92.8V295.5z M419.2,199.3H280.4c0,1.1-0.3,1.8-0.3,2.8h138.9v-2.8   H419.2z M93,199.3v2.8h130.7c0-1.1-0.3-1.8-0.3-2.8H93z"/>
</g>
</svg>